<svg width="24" height="24" fill="#60739F" stroke="none"  xmlns="http://www.w3.org/2000/svg"><path d="M5.202 2.922C7.955 4.988 10.914 9.177 12 11.424c1.088-2.247 4.046-6.435 6.798-8.502C20.783 1.432 24 .279 24 3.948c0 .734-.42 6.157-.666 7.038-.858 3.06-3.98 3.841-6.756 3.369 4.854.826 6.09 3.563 3.422 6.3-5.065 5.196-7.278-1.305-7.845-2.97-.105-.306-.155-.45-.155-.327 0-.122-.05.021-.153.327-.569 1.665-2.782 8.166-7.846 2.97-2.668-2.738-1.433-5.475 3.42-6.3-2.776.473-5.899-.308-6.755-3.369C.42 10.106 0 4.68 0 3.948 0 .279 3.217 1.433 5.202 2.922z" /></svg>
